<svg width="24" height="25" viewBox="0 0 24 25" fill="none" xmlns="http://www.w3.org/2000/svg">
<path d="M11.7333 6.53405C11.8652 5.86172 11.8575 4.97257 11.821 4.28427C11.7909 3.71637 12.4632 3.21826 13.4106 3.21826C14.358 3.21826 14.6778 3.41495 14.82 3.73896C15.1172 4.41598 15.5733 5.61981 15.5227 6.53405C15.4763 7.3736 14.9791 8.39214 14.5857 9.07695C14.3946 9.4097 14.6304 9.84984 15.0141 9.84984H20.2979C21.4997 9.84984 22.3979 10.9544 22.1528 12.131L20.5738 19.71C20.3908 20.5886 19.6164 21.2183 18.7189 21.2183H10.3122C9.26578 21.2183 8.41748 20.37 8.41748 19.3235V11.91C8.41748 11.8029 8.45198 11.7012 8.51797 11.6169C9.04673 10.9411 11.4915 7.76618 11.7333 6.53405Z" fill="#DBEAFE" stroke="#007AFF" stroke-width="1.89474" stroke-linecap="round" stroke-linejoin="round"/>
<path d="M1.80664 18.9303V13.4531C1.80664 12.4067 2.65494 11.5583 3.70138 11.5583H6.39858C7.44501 11.5583 8.29331 12.4067 8.29331 13.4531V18.9303C8.29331 19.9767 7.44501 20.825 6.39858 20.825H3.70138C2.65494 20.825 1.80664 19.9767 1.80664 18.9303Z" fill="#DBEAFE" stroke="#FF9800" stroke-width="1.89474"/>
</svg>
